<svg width="42" height="43" viewBox="0 0 42 43" fill="none" xmlns="http://www.w3.org/2000/svg">
<path d="M0.5 8.59351C0.5 4.45137 3.85786 1.09351 8 1.09351H34C38.1421 1.09351 41.5 4.45137 41.5 8.59351V34.5935C41.5 38.7356 38.1421 42.0935 34 42.0935H8C3.85786 42.0935 0.5 38.7356 0.5 34.5935V8.59351Z" fill="#C6D4F1"/>
<path d="M0.5 8.59351C0.5 4.45137 3.85786 1.09351 8 1.09351H34C38.1421 1.09351 41.5 4.45137 41.5 8.59351V34.5935C41.5 38.7356 38.1421 42.0935 34 42.0935H8C3.85786 42.0935 0.5 38.7356 0.5 34.5935V8.59351Z" stroke="#A0B6EA"/>
<path opacity="0.4" d="M34.3197 13.6202C34.3464 13.9402 34.3197 14.2735 34.2397 14.6069L29.7464 32.6468C29.4264 33.9935 28.2264 34.9268 26.8397 34.9268H9.31969C7.30636 34.9268 5.87971 32.9535 6.46638 31.0202L12.0797 12.9801C12.4664 11.7268 13.6264 10.8735 14.9331 10.8735H31.333C32.613 10.8735 33.653 11.6335 34.093 12.7002C34.2264 12.9802 34.293 13.3002 34.3197 13.6202Z" fill="#254EDB"/>
<path d="M35.6533 31.7535C35.7866 33.4735 34.4266 34.9268 32.7066 34.9268H26.84C28.2266 34.9268 29.4266 33.9935 29.7466 32.6468L34.2399 14.6069C34.3199 14.2735 34.3466 13.9402 34.3199 13.6202L34.3333 13.5935L35.6533 31.7535Z" fill="#254EDB"/>
<path d="M17.9066 15.1003C17.8266 15.1003 17.7466 15.0869 17.6666 15.0736C17.1333 14.9402 16.8 14.4069 16.9333 13.8603L18.32 8.10027C18.4533 7.56693 18.9866 7.24695 19.5333 7.36695C20.0666 7.50028 20.4 8.03358 20.2667 8.58025L18.88 14.3403C18.7733 14.7936 18.36 15.1003 17.9066 15.1003Z" fill="#254EDB"/>
<path d="M26.84 15.1135C26.7734 15.1135 26.6934 15.1135 26.6267 15.0868C26.0934 14.9668 25.7467 14.4334 25.8534 13.9001L27.1067 8.11349C27.2267 7.56682 27.76 7.23346 28.2934 7.34013C28.8267 7.46013 29.1734 7.99348 29.0667 8.52682L27.8133 14.3134C27.72 14.7934 27.3067 15.1135 26.84 15.1135Z" fill="#254EDB"/>
<path d="M25.9334 22.5935H15.2667C14.7201 22.5935 14.2667 22.1402 14.2667 21.5935C14.2667 21.0468 14.7201 20.5935 15.2667 20.5935H25.9334C26.4801 20.5935 26.9334 21.0468 26.9334 21.5935C26.9334 22.1402 26.4801 22.5935 25.9334 22.5935Z" fill="#254EDB"/>
<path d="M24.6 27.9268H13.9333C13.3867 27.9268 12.9333 27.4734 12.9333 26.9268C12.9333 26.3801 13.3867 25.9268 13.9333 25.9268H24.6C25.1467 25.9268 25.6 26.3801 25.6 26.9268C25.6 27.4734 25.1467 27.9268 24.6 27.9268Z" fill="#254EDB"/>
</svg>
