<svg width="28" height="28" viewBox="0 0 28 28" fill="none" xmlns="http://www.w3.org/2000/svg">
<rect x="0.695801" y="0.289307" width="26.9352" height="26.9352" rx="7.69577" fill="#1C3BA4"/>
<g clip-path="url(#clip0_123_2505)">
<path d="M18.1716 6.54201H21.3782C21.5908 6.54201 21.7947 6.62647 21.945 6.7768C22.0954 6.92714 22.1798 7.13104 22.1798 7.34365V20.1699C22.1798 20.3826 22.0954 20.5865 21.945 20.7368C21.7947 20.8871 21.5908 20.9716 21.3782 20.9716H6.94862C6.73601 20.9716 6.53211 20.8871 6.38177 20.7368C6.23143 20.5865 6.14697 20.3826 6.14697 20.1699V7.34365C6.14697 7.13104 6.23143 6.92714 6.38177 6.7768C6.53211 6.62647 6.73601 6.54201 6.94862 6.54201H10.1552V4.93872H11.7585V6.54201H16.5683V4.93872H18.1716V6.54201ZM20.5766 11.3519V8.14529H18.1716V9.74858H16.5683V8.14529H11.7585V9.74858H10.1552V8.14529H7.75026V11.3519H20.5766ZM20.5766 12.9552H7.75026V19.3683H20.5766V12.9552ZM9.35355 14.5584H13.3618V17.765H9.35355V14.5584Z" fill="#F9F5FF"/>
</g>
<defs>
<clipPath id="clip0_123_2505">
<rect width="19.2394" height="19.2394" fill="white" transform="translate(4.5437 4.13721)"/>
</clipPath>
</defs>
</svg>
