<svg width="42" height="43" viewBox="0 0 42 43" fill="none" xmlns="http://www.w3.org/2000/svg">
<path d="M0.5 8.59351C0.5 4.45137 3.85786 1.09351 8 1.09351H34C38.1421 1.09351 41.5 4.45137 41.5 8.59351V34.5935C41.5 38.7356 38.1421 42.0935 34 42.0935H8C3.85786 42.0935 0.5 38.7356 0.5 34.5935V8.59351Z" fill="#FEE4E2"/>
<path d="M0.5 8.59351C0.5 4.45137 3.85786 1.09351 8 1.09351H34C38.1421 1.09351 41.5 4.45137 41.5 8.59351V34.5935C41.5 38.7356 38.1421 42.0935 34 42.0935H8C3.85786 42.0935 0.5 38.7356 0.5 34.5935V8.59351Z" stroke="#FECDCA"/>
<path opacity="0.4" d="M25.0133 25.2602V34.9135L9.01335 34.9402V25.2602L9 23.2602V15.0202C9 14.1269 9.45335 13.3002 10.1867 12.8069L15.52 9.24687C16.4134 8.64687 17.5866 8.64687 18.48 9.24687L23.8133 12.8069C24.56 13.3002 25 14.1269 25 15.0202V23.2602L25.0133 25.2602Z" fill="#F04438"/>
<path d="M34.3333 33.9269H32.6399V29.9269C33.9066 29.5136 34.8266 28.3269 34.8266 26.9269V24.2603C34.8266 22.5136 33.3999 21.0869 31.6533 21.0869C29.9066 21.0869 28.4799 22.5136 28.4799 24.2603V26.9269C28.4799 28.3136 29.3866 29.4869 30.6266 29.9136V33.9269H7.66663C7.11996 33.9269 6.66663 34.3803 6.66663 34.9269C6.66663 35.4736 7.11996 35.9269 7.66663 35.9269H31.5733C31.6 35.9269 31.6133 35.9403 31.6399 35.9403C31.6666 35.9403 31.68 35.9269 31.7067 35.9269H34.3333C34.88 35.9269 35.3333 35.4736 35.3333 34.9269C35.3333 34.3803 34.88 33.9269 34.3333 33.9269Z" fill="#F04438"/>
<path d="M25.0133 25.2603H9.01335L9 23.2603H25L25.0133 25.2603Z" fill="#F04438"/>
<path d="M17 35.9268C16.4533 35.9268 16 35.4734 16 34.9268V29.9268C16 29.3801 16.4533 28.9268 17 28.9268C17.5467 28.9268 18 29.3801 18 29.9268V34.9268C18 35.4734 17.5467 35.9268 17 35.9268Z" fill="#F04438"/>
<path d="M17 19.9269C18.2886 19.9269 19.3333 18.8823 19.3333 17.5936C19.3333 16.3049 18.2886 15.2603 17 15.2603C15.7113 15.2603 14.6666 16.3049 14.6666 17.5936C14.6666 18.8823 15.7113 19.9269 17 19.9269Z" fill="#F04438"/>
</svg>
