<svg width="18" height="18" viewBox="0 0 18 18" fill="none" xmlns="http://www.w3.org/2000/svg">
<path d="M12.615 2.5H5.38499C3.78749 2.5 2.48999 3.805 2.48999 5.395V15.9625C2.48999 17.3125 3.45749 17.8825 4.64249 17.23L8.30249 15.1975C8.69249 14.98 9.32249 14.98 9.70499 15.1975L13.365 17.23C14.55 17.89 15.5175 17.32 15.5175 15.9625V5.395C15.51 3.805 14.2125 2.5 12.615 2.5Z" fill="#96949E"/>
<path d="M12.615 2.5H5.38499C3.78749 2.5 2.48999 3.805 2.48999 5.395V15.9625C2.48999 17.3125 3.45749 17.8825 4.64249 17.23L8.30249 15.1975C8.69249 14.98 9.32249 14.98 9.70499 15.1975L13.365 17.23C14.55 17.89 15.5175 17.32 15.5175 15.9625V5.395C15.51 3.805 14.2125 2.5 12.615 2.5Z" fill="#96949E"/>
<path d="M6.9375 7.7876C8.2725 8.2751 9.7275 8.2751 11.0625 7.7876H6.9375Z" fill="white"/>
<path d="M6.9375 7.7876C8.2725 8.2751 9.7275 8.2751 11.0625 7.7876" stroke="white" stroke-width="1.4" stroke-linecap="round" stroke-linejoin="round"/>
</svg>
