<svg width="42" height="43" viewBox="0 0 42 43" fill="none" xmlns="http://www.w3.org/2000/svg">
<path d="M0.5 8.59351C0.5 4.45137 3.85786 1.09351 8 1.09351H34C38.1421 1.09351 41.5 4.45137 41.5 8.59351V34.5935C41.5 38.7356 38.1421 42.0935 34 42.0935H8C3.85786 42.0935 0.5 38.7356 0.5 34.5935V8.59351Z" fill="#FEE4E2"/>
<path d="M0.5 8.59351C0.5 4.45137 3.85786 1.09351 8 1.09351H34C38.1421 1.09351 41.5 4.45137 41.5 8.59351V34.5935C41.5 38.7356 38.1421 42.0935 34 42.0935H8C3.85786 42.0935 0.5 38.7356 0.5 34.5935V8.59351Z" stroke="#F9DBAF"/>
<path d="M32.96 6.92676H29.04C27.3467 6.92676 26.3334 7.94009 26.3334 9.63342V13.5534C26.3334 15.2468 27.3467 16.2601 29.04 16.2601H32.96C34.6534 16.2601 35.6667 15.2468 35.6667 13.5534V9.63342C35.6667 7.94009 34.6534 6.92676 32.96 6.92676ZM33.8134 11.8334C33.32 13.4068 31.6 14.2601 31 14.2601C30.4 14.2601 28.6934 13.4334 28.1867 11.8334C28.1067 11.5934 28.0667 11.3268 28.0667 11.0734C28.0667 10.2068 28.5067 9.31342 29.4267 9.02009C29.9734 8.84676 30.56 8.94009 30.9734 9.28676C31.4 8.95342 31.9867 8.84676 32.5467 9.02009C33.7734 9.40676 34.16 10.7801 33.8134 11.8334Z" fill="#EF6820"/>
<path opacity="0.4" d="M32.96 16.2603H29.04C27.3466 16.2603 26.3333 15.2469 26.3333 13.5536V9.63359C26.3333 9.10025 26.44 8.64692 26.6266 8.26025H14.3333C10.6533 8.26025 7.66663 11.2336 7.66663 14.9003V22.8736V24.2069C7.66663 27.8736 10.6533 30.8469 14.3333 30.8469H16.3333C16.6933 30.8469 17.1733 31.0869 17.4 31.3803L19.4 34.0336C20.28 35.2069 21.72 35.2069 22.6 34.0336L24.6 31.3803C24.8533 31.0469 25.2533 30.8469 25.6666 30.8469H27.6666C31.3466 30.8469 34.3333 27.8736 34.3333 24.2069V15.9536C33.9466 16.1536 33.4933 16.2603 32.96 16.2603Z" fill="#EF6820"/>
<path d="M21 21.5934C20.2533 21.5934 19.6666 20.9934 19.6666 20.2601C19.6666 19.5268 20.2666 18.9268 21 18.9268C21.7333 18.9268 22.3333 19.5268 22.3333 20.2601C22.3333 20.9934 21.7466 21.5934 21 21.5934Z" fill="#EF6820"/>
<path d="M26.3333 21.5934C25.5867 21.5934 25 20.9934 25 20.2601C25 19.5268 25.6 18.9268 26.3333 18.9268C27.0667 18.9268 27.6667 19.5268 27.6667 20.2601C27.6667 20.9934 27.08 21.5934 26.3333 21.5934Z" fill="#EF6820"/>
<path d="M15.6667 21.5934C14.92 21.5934 14.3334 20.9934 14.3334 20.2601C14.3334 19.5268 14.9334 18.9268 15.6667 18.9268C16.4 18.9268 17 19.5268 17 20.2601C17 20.9934 16.4134 21.5934 15.6667 21.5934Z" fill="#EF6820"/>
</svg>
