<svg width="42" height="43" viewBox="0 0 42 43" fill="none" xmlns="http://www.w3.org/2000/svg">
<path d="M0.5 8.59351C0.5 4.45137 3.85786 1.09351 8 1.09351H34C38.1421 1.09351 41.5 4.45137 41.5 8.59351V34.5935C41.5 38.7356 38.1421 42.0935 34 42.0935H8C3.85786 42.0935 0.5 38.7356 0.5 34.5935V8.59351Z" fill="#D3F8DF"/>
<path d="M0.5 8.59351C0.5 4.45137 3.85786 1.09351 8 1.09351H34C38.1421 1.09351 41.5 4.45137 41.5 8.59351V34.5935C41.5 38.7356 38.1421 42.0935 34 42.0935H8C3.85786 42.0935 0.5 38.7356 0.5 34.5935V8.59351Z" stroke="#AAF0C4"/>
<path opacity="0.4" d="M8.69329 18.9269C8.11996 18.9269 7.66663 18.4736 7.66663 17.9003V14.8203C7.66663 11.2069 10.6133 8.26025 14.2266 8.26025H17.3066C17.88 8.26025 18.3333 8.71359 18.3333 9.28692C18.3333 9.86025 17.88 10.3136 17.3066 10.3136H14.2266C11.7333 10.3136 9.71996 12.3403 9.71996 14.8203V17.9003C9.71996 18.4736 9.25329 18.9269 8.69329 18.9269Z" fill="#16B364"/>
<path opacity="0.4" d="M33.3066 18.9269C32.7466 18.9269 32.28 18.4736 32.28 17.9003V14.8203C32.28 12.3269 30.2533 10.3136 27.7733 10.3136H24.6933C24.12 10.3136 23.6666 9.84692 23.6666 9.28692C23.6666 8.72692 24.12 8.26025 24.6933 8.26025H27.7733C31.3866 8.26025 34.3333 11.2069 34.3333 14.8203V17.9003C34.3333 18.4736 33.88 18.9269 33.3066 18.9269Z" fill="#16B364"/>
<path d="M27.7733 34.9269H25.92C25.36 34.9269 24.8933 34.4736 24.8933 33.9002C24.8933 33.3402 25.3466 32.8736 25.92 32.8736H27.7733C30.2666 32.8736 32.28 30.8469 32.28 28.3669V26.5269C32.28 25.9669 32.7333 25.5002 33.3066 25.5002C33.8666 25.5002 34.3333 25.9536 34.3333 26.5269V28.3669C34.3333 31.9802 31.3866 34.9269 27.7733 34.9269Z" fill="#16B364"/>
<path d="M17.3066 34.9269H14.2266C10.6133 34.9269 7.66663 31.9803 7.66663 28.3669V25.2869C7.66663 24.7136 8.11996 24.2603 8.69329 24.2603C9.26663 24.2603 9.71996 24.7136 9.71996 25.2869V28.3669C9.71996 30.8603 11.7466 32.8736 14.2266 32.8736H17.3066C17.8666 32.8736 18.3333 33.3269 18.3333 33.9003C18.3333 34.4736 17.88 34.9269 17.3066 34.9269Z" fill="#16B364"/>
<path d="M29.6133 20.5669H27.8H14.2H12.3867C11.8133 20.5669 11.36 21.0336 11.36 21.5936C11.36 22.1536 11.8133 22.6202 12.3867 22.6202H14.2H27.8H29.6133C30.1867 22.6202 30.64 22.1536 30.64 21.5936C30.64 21.0336 30.1867 20.5669 29.6133 20.5669Z" fill="#16B364"/>
<path d="M14.2 24.1801V24.6201C14.2 26.8335 15.9866 28.6201 18.2 28.6201H23.8C26.0133 28.6201 27.8 26.8335 27.8 24.6201V24.1801C27.8 24.0201 27.68 23.9001 27.52 23.9001H14.48C14.32 23.9001 14.2 24.0201 14.2 24.1801Z" fill="#16B364"/>
<path opacity="0.4" d="M14.2 19.0069V18.5669C14.2 16.3536 15.9866 14.5669 18.2 14.5669H23.8C26.0133 14.5669 27.8 16.3536 27.8 18.5669V19.0069C27.8 19.1669 27.68 19.2869 27.52 19.2869H14.48C14.32 19.2869 14.2 19.1669 14.2 19.0069Z" fill="#16B364"/>
</svg>
