<svg width="28" height="28" viewBox="0 0 28 28" fill="none" xmlns="http://www.w3.org/2000/svg">
<rect x="0.8479" y="0.289307" width="26.9352" height="26.9352" rx="7.69577" fill="#1C3BA4"/>
<g clip-path="url(#clip0_123_2509)">
<path d="M14.3155 21.7733C9.88803 21.7733 6.29907 18.1844 6.29907 13.7569C6.29907 9.32944 9.88803 5.74048 14.3155 5.74048C18.743 5.74048 22.3319 9.32944 22.3319 13.7569C22.3319 18.1844 18.743 21.7733 14.3155 21.7733ZM14.3155 20.1701C16.0164 20.1701 17.6476 19.4944 18.8503 18.2917C20.053 17.089 20.7287 15.4578 20.7287 13.7569C20.7287 12.056 20.053 10.4248 18.8503 9.22213C17.6476 8.01943 16.0164 7.34377 14.3155 7.34377C12.6146 7.34377 10.9834 8.01943 9.78073 9.22213C8.57803 10.4248 7.90236 12.056 7.90236 13.7569C7.90236 15.4578 8.57803 17.089 9.78073 18.2917C10.9834 19.4944 12.6146 20.1701 14.3155 20.1701ZM15.1171 13.7569H18.3237V15.3602H13.5139V9.74869H15.1171V13.7569Z" fill="#F9F5FF"/>
</g>
<defs>
<clipPath id="clip0_123_2509">
<rect width="19.2394" height="19.2394" fill="white" transform="translate(4.6958 4.13721)"/>
</clipPath>
</defs>
</svg>
